# Tiled2Unity generated file. Do not modify by hand.
# Wavefront file for 'Hillford-Town_mesh_0002.obj'

# Vertices (Count = 24)
v -176 -64 0
v -192 -64 0
v -192 -48 0
v -176 -48 0
v -512 -176 0
v -528 -176 0
v -528 -160 0
v -512 -160 0
v -1376 -336 0
v -1392 -336 0
v -1392 -320 0
v -1376 -320 0
v -1392 -352 0
v -1408 -352 0
v -1408 -336 0
v -1392 -336 0
v -736 -624 0
v -752 -624 0
v -752 -608 0
v -736 -608 0
v -752 -1328 0
v -768 -1328 0
v -768 -1312 0
v -752 -1312 0

# Texture cooridinates (Count = 16)
vt 0.2159329 0.9575
vt 0.2494759 0.9575
vt 0.2494759 0.9775
vt 0.2159329 0.9775
vt 0.2515723 0.5325
vt 0.2851153 0.5325
vt 0.2851153 0.5525
vt 0.2515723 0.5525
vt 0.2159329 0.97875
vt 0.2494759 0.97875
vt 0.2494759 0.99875
vt 0.2159329 0.99875
vt 0.8218029 0.915
vt 0.8553459 0.915
vt 0.8553459 0.935
vt 0.8218029 0.935

# Normal
vn 0 0 -1

# Mesh description
g Hillford-Town_mesh_0002

# Faces
f 1/1/1 2/2/1 3/3/1 4/4/1
f 5/5/1 6/6/1 7/7/1 8/8/1
f 9/1/1 10/2/1 11/3/1 12/4/1
f 13/1/1 14/2/1 15/3/1 16/4/1
f 17/9/1 18/10/1 19/11/1 20/12/1
f 21/13/1 22/14/1 23/15/1 24/16/1

